# xmcd CD database file
#
# Track frame offsets:
#	150
#	14812
#	34723
#	49672
#	71848
#	91532
#	115602
#	135474
#	156999
#	173728
#	194148
#	208993
#	230117
#	244652
#	263349
#	278838
#	296195
#	313360
#
# Disc length: 4495 seconds
#
# Revision: 3
# Processed by: cddbd v1.5.2PL0 Copyright (c) Steve Scherf et al.
# Submitted via: CDex 1.51
#
DISCID=11118d12
DTITLE=Joe Arroyo and Grupo Niche - 2 Grandes Voces de la Salsa Colombiana
DYEAR=2007
DGENRE=Salsa
TTITLE0=Una Aventura
TTITLE1=La Noche
TTITLE2=Cali Pachanguero
TTITLE3=A Mi Dios Todo Le Debo
TTITLE4=Sin Sentimientos
TTITLE5=Te Quiero Mas
TTITLE6=Culebra
TTITLE7=Rebelion
TTITLE8=Duele Mas
TTITLE9=Pa´l Bailador
TTITLE10=Hagamos Lo Que Diga El Corazon
TTITLE11=El Centurion De La Noche
TTITLE12=Cali Aji
TTITLE13=Echao Pa'Lante
TTITLE14=Gotas De Lluvia
TTITLE15=Suave Bruta
TTITLE16=Se Parecio Tanto a Ti
TTITLE17=La Vuelta
EXTD=YEAR: 2007
EXTT0=
EXTT1=
EXTT2=
EXTT3=
EXTT4=
EXTT5=
EXTT6=
EXTT7=
EXTT8=
EXTT9=
EXTT10=
EXTT11=
EXTT12=
EXTT13=
EXTT14=
EXTT15=
EXTT16=
EXTT17=
PLAYORDER=
